<svg xmlns="http://www.w3.org/2000/svg" width="24" height="24"><path fill="#fff" d="M19.845 5.595a1.44 1.44 0 11-2.879.001 1.44 1.44 0 012.879-.001zM16 12a4 4 0 10-8 0 4 4 0 008 0zm2.162 0a6.162 6.162 0 11-12.325.001A6.162 6.162 0 0118.162 12zM16.949.073c4.362.2 6.783 2.626 6.979 6.98C23.986 8.333 24 8.741 24 12c0 3.259-.014 3.668-.073 4.948-.197 4.362-2.625 6.78-6.979 6.98-1.28.058-1.689.072-4.948.072-3.259 0-3.667-.014-4.948-.072-4.362-.2-6.78-2.622-6.98-6.98C.014 15.668 0 15.259 0 12c0-3.259.014-3.667.073-4.948.2-4.362 2.622-6.78 6.98-6.98C8.333.014 8.741 0 12 0c3.259 0 3.668.014 4.949.073zM12 2.163c-3.204 0-3.583.012-4.849.069-3.255.148-4.77 1.692-4.919 4.919-.057 1.266-.07 1.645-.07 4.849 0 3.205.012 3.584.07 4.849.148 3.221 1.659 4.771 4.919 4.92 1.265.058 1.645.07 4.849.07 3.206 0 3.584-.012 4.85-.07 3.255-.148 4.77-1.694 4.919-4.919.057-1.265.069-1.644.069-4.849 0-3.204-.011-3.584-.069-4.849-.148-3.228-1.667-4.771-4.919-4.919-1.266-.058-1.646-.07-4.85-.07z"/></svg>