<svg xmlns="http://www.w3.org/2000/svg" width="40" height="40"><path fill="#fff" d="M29.318 34.648h1.332v1.333h-1.332zM19.989 3.332h1.333V5.33h-1.333zm2.666 0h1.332V5.33h-1.332zm2.665 0h1.332V5.33H25.32zm2.665 0h1.333V5.33h-1.333zm-12.66 7.995h2.665v1.333h-2.665zm-3.998 0h2.666v1.333h-2.666zm-3.998 0h2.666v1.333H7.329zm7.996 3.998h2.665v1.333h-2.665zm-11.993 0h2.665v1.333H3.332zm0-3.998h2.665v1.333H3.332zm1.066-1.999a1.732 1.732 0 01-1.733-1.732V4.398c0-.957.776-1.733 1.733-1.733h3.198c.957 0 1.732.776 1.732 1.733v3.198c0 .957-.775 1.732-1.732 1.732zm0-1.332h3.198a.4.4 0 00.4-.4v-.933H6.663V5.33h1.333v-.932a.4.4 0 00-.4-.4H4.398a.4.4 0 00-.4.4v.932H5.33v1.333H3.998v.933c0 .22.179.4.4.4zm33.028 3.18a8.72 8.72 0 012.553 6.142v21.994a.666.666 0 01-.667.667H27.32a.666.666 0 01-.667-.667V32.84l-.382-.612a9.632 9.632 0 01-.83-8.553L9.799 29.7a3.332 3.332 0 01-4.307-1.91l-2.504-6.502A3.325 3.325 0 010 17.99V3.332A3.336 3.336 0 013.332 0h26.652a3.336 3.336 0 013.332 3.332v3.727zm-4.11 6.814a3.332 3.332 0 01-.282 1.333l1.156-.446a1.999 1.999 0 001.148-2.584l-2.022-5.25zm-29.984 2h19.974l-2.602-2.843a3.555 3.555 0 015.13-4.916l6.104 6.105c.025-.114.04-.23.045-.346V7.582l-.006-.015h.006V3.332a2 2 0 00-1.999-2H3.332a2 2 0 00-2 2V17.99a2 2 0 002 2zm1.098 1.332l.7 1.824 4.739-1.824zm20.963.94l-.866-.944H13.565v.004l-7.953 3.065 1.124 2.923a1.999 1.999 0 002.584 1.147zm13.253 11.054h-10.66v5.33h10.66zm0-15.998a7.379 7.379 0 00-2.162-5.198l-2.159-2.163 2.255 5.856a3.332 3.332 0 01-1.91 4.305l-.683.266 2.465 2.466-.942.942-10.618-10.615a2.222 2.222 0 00-3.209 3.073l5.46 5.957c.196.213.232.53.088.78a8.309 8.309 0 00.169 8.534l.289.462h10.957z"/></svg>