<svg xmlns="http://www.w3.org/2000/svg" width="40" height="40"><path fill="#fff" d="M30.968 10.323h6.451v1.29h-6.451zm5.161 2.58h1.29v1.29h-1.29zm-2.58 0h1.29v1.29h-1.29zm-2.581 0h1.29v1.29h-1.29zm4.516 3.871h-7.097v-4.516a4.522 4.522 0 014.516-4.516h2.58A4.522 4.522 0 0140 12.258a4.522 4.522 0 01-4.516 4.516zm-5.807-1.29h5.807a3.23 3.23 0 003.226-3.226 3.23 3.23 0 00-3.226-3.226h-2.58a3.23 3.23 0 00-3.227 3.226zM40 34.194V40H25.161v-7.42a.969.969 0 00-.967-.967h-.968v1.15l-1.802.443c-.08.215-.17.43-.269.642l.963 1.59-3.453 3.454-1.59-.963c-.214.1-.428.19-.642.268L15.99 40h-4.883l-.442-1.802a8.517 8.517 0 01-.642-.268l-1.59.962-3.454-3.453.963-1.59a8.629 8.629 0 01-.268-.642l-1.803-.443V27.88l1.803-.443c.079-.214.169-.428.268-.642l-.963-1.59.69-.69H4.516a1.938 1.938 0 01-1.935-1.935v-1.29c0-1.068.868-1.936 1.935-1.936h1.29a.645.645 0 00.646-.645v-.645H0v-3.226c0-3.009 1.885-5.579 4.532-6.61a4.514 4.514 0 01-1.951-3.713A4.522 4.522 0 017.097 0a4.522 4.522 0 014.516 4.516A4.514 4.514 0 019.66 8.23a7.126 7.126 0 013.887 3.67 7.128 7.128 0 013.887-3.67 4.514 4.514 0 01-1.951-3.713A4.522 4.522 0 0120 0a4.522 4.522 0 014.516 4.516 4.514 4.514 0 01-1.951 3.713c2.647 1.031 4.532 3.601 4.532 6.61v3.226h-6.452v.645c0 .356.29.645.645.645h1.29c1.068 0 1.936.868 1.936 1.935v1.29a1.938 1.938 0 01-1.935 1.936h-1.153l.69.69-.964 1.59c.047.1.081.2.124.3h6.287a5.146 5.146 0 01-1.759-3.87 5.167 5.167 0 015.162-5.161 5.167 5.167 0 015.161 5.16 5.154 5.154 0 01-1.904 4c3.283.621 5.775 3.507 5.775 6.969zm-9.032-7.097a3.875 3.875 0 003.87-3.871 3.875 3.875 0 00-3.87-3.871 3.875 3.875 0 00-3.871 3.87 3.875 3.875 0 003.87 3.872zM20 7.742a3.23 3.23 0 003.226-3.226A3.23 3.23 0 0020 1.29a3.23 3.23 0 00-3.226 3.226A3.23 3.23 0 0020 7.742zm-5.806 7.097v1.935h1.935v-5.161h1.29v5.161h5.162v-5.161h1.29v5.161h1.935V14.84A5.813 5.813 0 0020 9.032a5.813 5.813 0 00-5.806 5.807zM7.097 7.742a3.23 3.23 0 003.226-3.226A3.23 3.23 0 007.097 1.29 3.23 3.23 0 003.87 4.516a3.23 3.23 0 003.226 3.226zM1.29 16.774h1.936v-5.161h1.29v5.161h5.161v-5.161h1.29v5.161h1.936V14.84a5.813 5.813 0 00-5.806-5.807A5.813 5.813 0 001.29 14.84zm5.67 6.452l1.472-1.472 1.59.962c.213-.1.428-.189.642-.268l.443-1.803h4.883l.443 1.803c.214.08.428.169.642.268l1.59-.962 1.472 1.472h2.444a.645.645 0 00.645-.645v-1.29a.645.645 0 00-.645-.646h-1.29a1.938 1.938 0 01-1.936-1.935v-.645H7.742v.645a1.938 1.938 0 01-1.936 1.935h-1.29a.645.645 0 00-.645.645v1.29c0 .357.289.646.645.646zm14.975 8.387H19.21a5.813 5.813 0 01-5.662 4.516 5.813 5.813 0 01-5.806-5.806 5.813 5.813 0 015.806-5.807 5.82 5.82 0 014.813 2.581h1.503l-.017-.034-.167-.322.81-1.338-2.022-2.021-1.338.81-.321-.167a7.078 7.078 0 00-1.113-.466l-.346-.11-.372-1.514h-2.86l-.37 1.514-.347.11a7.028 7.028 0 00-1.113.465l-.32.167-1.339-.81-2.021 2.022.81 1.338-.168.32a7.052 7.052 0 00-.465 1.114l-.11.346-1.514.372v2.86l1.514.37.109.347c.117.368.273.743.466 1.113l.167.32-.81 1.339 2.021 2.021 1.338-.81.322.168c.37.192.744.349 1.114.466l.344.11.373 1.513h2.86l.37-1.514.346-.109a7.029 7.029 0 001.113-.466l.322-.167 1.338.81 2.021-2.021-.81-1.338.167-.322c.193-.37.35-.744.467-1.114l.11-.344 1.512-.373zm-8.387-2.258c0-.337.08-.653.212-.94-.071-.009-.14-.028-.212-.028a1.938 1.938 0 00-1.935 1.936c0 1.067.868 1.935 1.935 1.935.623 0 1.184-.3 1.542-.773a2.253 2.253 0 01-1.542-2.13zm2.258-2.258h.898a4.533 4.533 0 00-3.156-1.29 4.522 4.522 0 00-4.516 4.516 4.522 4.522 0 004.516 4.516 4.521 4.521 0 004.327-3.226h-1.371a3.225 3.225 0 11-1.71-4.265 2.234 2.234 0 011.012-.251zm22.904 7.097a5.813 5.813 0 00-5.807-5.807H15.806a.969.969 0 000 1.936h8.388a2.26 2.26 0 012.258 2.258v6.129h9.032v-7.097h1.29v7.097h1.936z"/></svg>