<svg xmlns="http://www.w3.org/2000/svg" width="33" height="40" viewBox="0 0 33 40"><g><g><path fill="#fff" d="M25.059 18.121v-.626c0-.712-.58-1.291-1.292-1.291h-.939c-.885 0-1.605.72-1.605 1.604 0 .885.72 1.605 1.605 1.605h.626a2.782 2.782 0 0 1 2.78 2.779c0 1.44-1.102 2.627-2.506 2.765v1.305a.587.587 0 1 1-1.174 0v-1.291h-.04a2.469 2.469 0 0 1-2.465-2.466.587.587 0 1 1 1.174 0c0 .712.58 1.291 1.292 1.291h.94c.884 0 1.604-.72 1.604-1.604 0-.885-.72-1.605-1.605-1.605h-.626a2.782 2.782 0 0 1-2.779-2.779c0-1.44 1.1-2.627 2.505-2.765v-1.305a.587.587 0 1 1 1.174 0v1.291h.04a2.469 2.469 0 0 1 2.465 2.466v.626a.587.587 0 1 1-1.174 0zM33.12 20c0 4.973-4.162 9.052-9.393 9.338v7.57A3.095 3.095 0 0 1 20.636 40H3.102A3.095 3.095 0 0 1 .01 36.908v-7.24a.587.587 0 1 1 1.174 0v3.522h21.37v-3.852a10.479 10.479 0 0 1-2.89-.568l-4.383 2.391c-.466.254-1.013-.22-.833-.716l1.308-3.596H9.051a.592.592 0 0 1-.415-.172l-4.697-4.696a.593.593 0 0 1-.172-.415V8.728c0-.324.263-.587.588-.587h15.029c.324 0 .587.263.587.587v2.402c.82-.258 1.685-.419 2.583-.468V6.184H1.184v20.704a.587.587 0 1 1-1.174 0V3.092A3.096 3.096 0 0 1 3.102 0h17.534a3.096 3.096 0 0 1 3.092 3.092v7.57c5.231.286 9.393 4.365 9.393 9.338zM22.554 34.364H1.184v2.544a1.92 1.92 0 0 0 1.918 1.918h17.534a1.92 1.92 0 0 0 1.918-1.918zm0-29.354V3.092a1.92 1.92 0 0 0-1.918-1.918H3.102a1.92 1.92 0 0 0-1.918 1.918V5.01zM8.464 22.153H5.772l2.692 2.692zm1.174 3.522h5.568c-1.327-1.62-2.045-3.592-2.045-5.675 0-1.112.209-2.18.59-3.17H7.486a.587.587 0 1 1 0-1.174h6.819c.4-.711.893-1.369 1.467-1.957h-2.024a.587.587 0 1 1 0-1.174h3.13c.076 0 .148.014.214.04.53-.38 1.1-.71 1.705-.985V9.315H4.942v11.663h4.11c.323 0 .586.263.586.588zM31.948 20c0-4.51-3.951-8.18-8.807-8.18s-8.806 3.67-8.806 8.18c0 2.217.94 4.293 2.648 5.846.176.16.238.41.157.635l-1.057 2.905 3.252-1.773a.587.587 0 0 1 .489-.034 9.343 9.343 0 0 0 3.317.601c4.856 0 8.806-3.67 8.806-8.18zm-19.492-.626a.587.587 0 0 1-.587.587H7.486a.587.587 0 1 1 0-1.174h4.383c.325 0 .587.263.587.587zm-.626-6.262a.587.587 0 0 1-.587.587H7.486a.587.587 0 1 1 0-1.175h3.757c.324 0 .587.263.587.588zm1.879-10.02a.587.587 0 0 1-.587.587h-2.505a.587.587 0 1 1 0-1.174h2.505c.324 0 .587.263.587.587zm0 32.564v1.878a.587.587 0 0 1-.587.587h-2.505a.587.587 0 0 1-.587-.587v-1.878c0-.325.262-.587.587-.587h2.505c.324 0 .587.262.587.587zm-1.174.587h-1.331v.704h1.33z"/></g></g></svg>