<svg xmlns="http://www.w3.org/2000/svg" width="139" height="20"><defs><linearGradient id="a" x1="13.53" x2=".88" y1="0" y2="19.7" gradientUnits="userSpaceOnUse"><stop offset="0" stop-color="#33d35e"/><stop offset="1" stop-color="#2ab6d9"/></linearGradient><linearGradient id="b" x1="20.9" x2="8.25" y1="0" y2="19.7" gradientUnits="userSpaceOnUse"><stop offset="0" stop-color="#33d35e"/><stop offset="1" stop-color="#2ab6d9"/></linearGradient><linearGradient id="c" x1="28.27" x2="15.62" y1="0" y2="19.7" gradientUnits="userSpaceOnUse"><stop offset="0" stop-color="#33d35e"/><stop offset="1" stop-color="#2ab6d9"/></linearGradient></defs><path fill="#fff" d="M127.38 15.474V0h3.916v8.559l2.708-4.454h4.397l-3.543 5.419 3.902 5.95h-4.616l-2.848-4.808v4.808zm-13.748 0V4.105h2.747l.538 1.172c.846-.943 2.108-1.508 3.579-1.508 2.64 0 4.373 1.876 4.373 4.773v6.932h-3.915V9.083c0-1.323-.497-1.98-1.483-1.98-1.22 0-1.923.853-1.923 2.3v6.07zm-6.192-5.688c0-1.475-1.078-2.583-2.545-2.583-1.476 0-2.545 1.108-2.545 2.583 0 1.485 1.078 2.593 2.545 2.593 1.467 0 2.545-1.108 2.545-2.593zm-9.03-.009c0-3.52 2.485-6.026 5.961-6.026 1.34 0 2.535.447 3.474 1.221l.4-.879h2.92v11.369h-3.028l-.335-.804c-.931.754-2.11 1.188-3.43 1.188-3.477 0-5.962-2.536-5.962-6.069zm-5.093.021c0-1.485-1.078-2.593-2.544-2.593-1.467 0-2.545 1.108-2.545 2.593 0 1.473 1.078 2.58 2.545 2.58 1.457 0 2.544-1.107 2.544-2.58zm-5.45 4.832l-.37.844H84.6V0h3.871v4.534a5.332 5.332 0 012.825-.784c3.5 0 5.973 2.515 5.973 6.048s-2.472 6.048-5.973 6.048c-1.326 0-2.505-.445-3.429-1.216zm-16.416 5.064v-3.362h1.077c1.498 0 1.95-.39 2.48-1.804L70.312 4.105h4.255l2.413 6.259 2.248-6.259h4.206L78.67 14.961c-1.533 3.477-2.941 4.733-5.877 4.733zm-11.777-7.94h3.773c0 .831.58 1.214 1.322 1.214.574 0 1.117-.292 1.117-.88 0-.657-.861-.844-1.954-1.024-1.765-.286-4.104-.819-4.104-3.578 0-2.281 1.944-3.753 4.86-3.753 2.897 0 4.775 1.54 4.82 3.846h-3.67c0-.726-.489-1.064-1.2-1.064-.628 0-1.05.311-1.05.838 0 .648.87.799 1.952.991 1.797.32 4.187.693 4.187 3.579 0 2.377-2.007 3.933-5.03 3.933-3.102 0-4.987-1.638-5.023-4.103zm-5.56-1.968c0-1.475-1.079-2.583-2.545-2.583-1.476 0-2.545 1.108-2.545 2.583 0 1.485 1.078 2.593 2.545 2.593 1.466 0 2.544-1.108 2.544-2.593zm-9.03-.009c0-3.52 2.487-6.026 5.966-6.026 1.34 0 2.537.447 3.476 1.221l.401-.879h2.92v11.369h-3.029l-.335-.804c-.932.754-2.112 1.188-3.433 1.188-3.48 0-5.966-2.536-5.966-6.069zm-7.33-2.976c-1.14 0-1.934.62-2.25 1.75h4.595c-.344-1.137-1.163-1.75-2.344-1.75zM31.58 9.786c0-3.488 2.607-6.053 6.175-6.053 3.664 0 6.202 2.616 6.201 5.954 0 .343-.03.686-.08 1.038h-8.442c.256 1.305 1.085 1.98 2.32 1.98.916 0 1.68-.401 2.056-1.068h3.897c-.8 2.597-3.1 4.22-5.952 4.22-3.547 0-6.175-2.595-6.175-6.071z"/><path fill="url(#a)" d="M10.802 0L0 19.704h5.986L16.79 0z"/><path fill="url(#b)" d="M18.172 0L7.37 19.704h5.986L24.16 0z" opacity=".5"/><path fill="url(#c)" d="M25.542 0L14.74 19.704h5.986L31.53 0z" opacity=".15"/></svg>